PathFileType        4      (X/Y/Z)      C:\Users\cpontonn\Documents\TRAVAIL - COURS\FORMATION DOCTORALE\COURS AUTOMNE\DATA\ESCRIME PROPRE\C3Ds\trial10.trc         
DataRate	CameraRate	NumFrames	NumMarkers	Units	OrigDataRate	OrigDataStartFrame	OrigNumFrames
250.0	250.0	6	45	mm	250.0	332	883
Frame#	Time	LCAR			LFHD			LBHD			RFHD			RBHD			C7			T10			CLAV			STRN			LSHO			LUPA			LRAD			LHUM			LWRB			LWRA			RSHO			RBAC			RUPA			RRAD			RHUM			RWRB			RWRA			RCAR			LFWT			LBWT			RFWT			RBWT			LTHI			LKNE			LKNI			LANE			LANI			LHEE			LTAR			LTARI			LTOE			RTHI			RKNE			RKNI			RANE			RANI			RHEE			RTAR			RTARI			RTOE			
		X1	Y1	Z1	X2	Y2	Z2	X3	Y3	Z3	X4	Y4	Z4	X5	Y5	Z5	X6	Y6	Z6	X7	Y7	Z7	X8	Y8	Z8	X9	Y9	Z9	X10	Y10	Z10	X11	Y11	Z11	X12	Y12	Z12	X13	Y13	Z13	X14	Y14	Z14	X15	Y15	Z15	X16	Y16	Z16	X17	Y17	Z17	X18	Y18	Z18	X19	Y19	Z19	X20	Y20	Z20	X21	Y21	Z21	X22	Y22	Z22	X23	Y23	Z23	X24	Y24	Z24	X25	Y25	Z25	X26	Y26	Z26	X27	Y27	Z27	X28	Y28	Z28	X29	Y29	Z29	X30	Y30	Z30	X31	Y31	Z31	X32	Y32	Z32	X33	Y33	Z33	X34	Y34	Z34	X35	Y35	Z35	X36	Y36	Z36	X37	Y37	Z37	X38	Y38	Z38	X39	Y39	Z39	X40	Y40	Z40	X41	Y41	Z41	X42	Y42	Z42	X43	Y43	Z43	X44	Y44	Z44	X45	Y45	Z45	
332	1.324	1536.5802	1069.16833	43.91982999999997	1113.27966	1546.73315	206.91460000000004	1018.77783	1512.03943	187.15848000000003	1103.43237	1556.8468	422.9036300000001	991.98108	1505.59717	425.77859000000007	940.84064	1369.75073	248.55661000000003	895.85162	1103.8479	172.99661	1055.18201	1265.927	349.38913	1069.38696	1113.25488	375.34647	1118.13	1291.13953	133.38504000000003	1174.56812	1165.80566	127.39607	1153.1322	976.9552	25.37286999999999	1135.8772	937.60712	105.15172999999999	1424.66235	949.73407	102.12925999999997	1403.7699	1049.59583	86.54116999999998	841.71973	1309.50244	425.29099	804.5191	1254.66284	272.45071	775.46613	1089.15198	461.17352	697.81958	1009.5799	432.64224	733.59253	976.97504	351.99881	915.98193	953.01337	584.2440200000001	936.03522	1041.36902	558.04114	956.36749	1021.28192	637.53613	1118.13391	884.7121	273.70584	922.66614	884.06262	151.14322	928.80798	881.88147	414.92563	863.3891	889.93744	193.88631	1204.51318	748.97229	169.67026999999996	1350.55579	510.62784	200.52849999999995	1332.53662	476.17761	337.64771	1305.39929	104.92454999999998	179.0320299999999	1288.78418	110.32549999999999	274.24517999999995	1225.60999	62.50208999999999	204.9962899999999	1443.84546	40.653449999999985	186.87761999999992	1418.57446	50.844299999999976	291.5875499999999	1497.37793	54.62451999999998	277.67827999999986	861.59833	501.12670999999995	529.57874	770.70776	435.9773599999999	474.6629899999999	898.80359	380.08365	456.7714199999999	680.47974	118.16053999999998	192.77595999999997	764.47809	75.39169999999999	230.54262999999995	732.59814	69.52456999999998	134.78066999999993	596.67511	49.00680999999998	305.29229999999995	704.46045	47.92072999999998	342.42467999999997	653.67523	50.80436999999998	397.83513999999997	
333	1.328	1536.45996	1069.11755	43.877199999999974	1113.28845	1546.71521	206.93600000000004	1018.79846	1512.04333	187.19769000000002	1103.42102	1556.84033	422.88675000000006	991.96118	1505.5874	425.78357000000005	940.84277	1369.73718	248.56497000000002	895.8363	1103.85596	173.00623	1055.18494	1265.90833	349.41995	1069.39673	1113.27856	375.37125	1118.14209	1291.13293	133.40456000000003	1174.58838	1165.79712	127.43053	1153.17627	976.93732	25.39390999999999	1135.89038	937.591	105.17407999999999	1424.68945	949.70258	102.14996999999997	1403.80432	1049.56458	86.54709999999999	841.74658	1309.48499	425.34079	804.51892	1254.68176	272.49371	775.44818	1089.14465	461.20074	697.81281	1009.56158	432.6427	733.59174	976.98743	352.02576	916.02722	953.01227	584.2845500000001	936.05017	1041.35901	558.05103	956.37463	1021.28424	637.54498	1118.1416	884.7099	273.77179	922.67804	884.05054	151.15424	928.79041	881.87952	414.94641	863.38287	889.92554	193.88713	1204.53882	748.9682	169.63070999999997	1350.5874	510.6272	200.49816999999993	1332.55542	476.17145	337.64832	1305.40308	104.92067999999999	179.01273999999992	1288.80786	110.40116999999998	274.20653999999996	1225.59692	62.51020999999999	204.99643999999992	1443.854	40.65128999999999	186.8947599999999	1418.59448	50.85656999999998	291.5798299999999	1497.31128	54.43571999999999	277.9661299999999	861.71979	501.16903999999994	529.56836	770.71057	435.98815999999994	474.65120999999994	898.8078	380.08804	456.82003999999995	680.48779	118.16656999999998	192.74706999999998	764.45837	75.40074999999999	230.55567999999994	732.60089	69.52588999999999	134.77205999999995	596.71094	48.95927999999998	305.3633699999999	704.47803	47.92963999999998	342.4363399999999	653.68298	50.80096999999998	397.83538999999996	
334	1.332	1536.67676	1069.10754	43.92658999999997	1113.31897	1546.70911	206.93018000000004	1018.80225	1512.03955	187.19385000000003	1103.474	1556.82861	422.99304000000006	991.98364	1505.59497	425.78415000000007	940.85242	1369.72888	248.60483000000002	895.8573	1103.84705	173.03635	1055.20776	1265.91772	349.45416	1069.4502	1113.27075	375.41959	1118.16443	1291.10291	133.42177000000004	1174.61963	1165.79663	127.46549	1153.19507	976.92017	25.446169999999988	1135.82971	937.56561	105.13245999999998	1424.75024	949.70892	102.19409999999998	1403.81775	1049.55835	86.54120999999999	841.76434	1309.49036	425.36661	804.55365	1254.67786	272.52637	775.44086	1089.12146	461.20654	697.82605	1009.56744	432.68295	733.60596	976.97467	352.04324	916.04761	953.01721	584.2997400000002	936.01337	1041.38147	558.08228	956.39789	1021.27734	637.60699	1118.11743	884.70953	273.79257	922.66211	884.0592	151.12506	928.79224	881.83606	414.95822	863.37793	889.92249	193.87619	1204.53687	748.97925	169.64507999999998	1350.55786	510.64246	200.53554999999994	1332.54663	476.15353	337.66565	1305.40686	104.92954999999999	178.99152999999993	1288.78479	110.33523999999998	274.24172999999996	1225.57983	62.485269999999986	205.0227999999999	1443.85144	40.67066999999999	186.85685999999993	1418.58899	50.84455999999998	291.5819999999999	1497.33252	54.53215999999998	277.8017299999999	861.71832	501.19701999999995	529.58447	770.72235	435.98787999999996	474.6776699999999	898.83307	380.09082	456.80761999999993	680.47052	118.17047999999998	192.77909999999997	764.37366	75.28785999999998	230.69776999999993	732.60956	69.52476999999999	134.77300999999994	596.70624	48.970619999999975	305.33117999999996	704.43652	47.92805999999998	342.4255099999999	653.64069	50.71071999999998	397.8873899999999	
335	1.336	1536.71826	1069.12988	43.99515999999997	1113.3551	1546.69482	206.97417000000002	1018.83112	1512.04053	187.21957000000003	1103.46729	1556.83777	423.01437000000004	992.00732	1505.59424	425.80081000000007	940.83771	1369.73364	248.61465000000004	895.85297	1103.87891	173.05717	1055.2157	1265.93591	349.46194	1069.48083	1113.30603	375.43027	1118.17236	1291.10254	133.42827000000003	1174.63525	1165.79163	127.48212	1153.22961	976.90326	25.47145999999999	1135.89587	937.56238	105.18854999999999	1424.77515	949.7182	102.21667999999997	1403.86426	1049.54187	86.57517999999999	841.77979	1309.50928	425.40192	804.54791	1254.66541	272.55112	775.43494	1089.13489	461.23291	697.84473	1009.56421	432.70865	733.61798	976.99438	352.05991	916.05701	952.99597	584.3505200000001	936.02496	1041.37329	558.11993	956.38043	1021.29584	637.60651	1118.19104	884.74225	273.78674	922.67651	884.05536	151.15707	928.80652	881.82813	414.98053	863.39886	889.90424	193.8987	1204.55945	748.97076	169.65941999999998	1350.61377	510.63104	200.51813999999993	1332.55261	476.14563	337.66437	1305.38025	104.93030999999999	178.99248999999992	1288.7876	110.40809999999999	274.17019999999997	1225.60999	62.50969999999999	204.9958599999999	1443.86646	40.64130999999998	186.8484799999999	1418.58655	50.932609999999976	291.4737199999999	1497.31897	54.436199999999985	277.9196199999999	861.69092	501.2148399999999	529.57385	770.62109	435.97515999999996	474.61330999999996	898.80939	380.08832	456.8580299999999	680.48529	118.18036999999998	192.74833999999998	764.50421	75.36494999999998	230.53222999999994	732.62335	69.51581999999999	134.78241999999995	596.71112	48.95921999999998	305.3397499999999	704.45313	47.92966999999998	342.4103099999999	653.68311	50.80041999999998	397.8321199999999	
336	1.34	1536.74622	1069.10828	44.00337999999997	1113.37036	1546.71838	207.00786000000002	1018.85303	1512.0282	187.23514000000003	1103.46313	1556.80566	422.98721000000006	992.03949	1505.55566	425.87469000000004	940.77802	1369.74585	248.64880000000002	895.83533	1103.87219	173.07025	1055.22803	1265.92444	349.50146	1069.52441	1113.28357	375.4769	1118.16748	1291.09204	133.43730000000002	1174.65039	1165.7937	127.51617	1153.26062	976.875	25.47474999999999	1136.08044	937.55243	105.41357999999998	1424.75818	949.67328	102.19694999999997	1403.9043	1049.52344	86.57429999999998	841.80035	1309.48938	425.44296	804.53931	1254.68433	272.59378	775.44275	1089.14026	461.25449	697.82562	1009.58551	432.69653	733.64227	976.99463	352.09116	916.04755	953.02197	584.3441800000002	936.01135	1041.36584	558.11682	956.40204	1021.27765	637.63745	1118.16772	884.65295	273.8136	922.67529	884.06079	151.16011	928.81256	881.83051	414.99289	863.31519	889.92914	193.86659	1204.55127	748.95355	169.66149999999996	1350.61182	510.64713	200.54508999999993	1332.55005	476.14688	337.67596	1305.40076	104.91875999999999	179.0295299999999	1288.77771	110.33518999999998	274.24270999999993	1225.60095	62.50550999999999	204.9927399999999	1443.85242	40.637399999999985	186.8743599999999	1418.58179	50.84714999999998	291.5851099999999	1497.33936	54.528249999999986	277.8096899999999	861.70715	501.2021199999999	529.57465	770.73755	435.96279999999996	474.67324999999994	898.83777	380.07401	456.88552999999996	680.50299	118.15179999999998	192.78112999999996	764.4707	75.38823999999998	230.55248999999995	732.58575	69.51928999999998	134.77022999999994	596.78101	49.03937999999998	305.29421999999994	704.4787	47.99027999999998	342.38946999999996	653.63367	50.73627999999998	397.88460999999995	
337	1.344	1536.79968	1069.08533	44.02870999999997	1113.3739	1546.70007	207.01208000000003	1018.84235	1512.04517	187.24745000000001	1103.52612	1556.79358	423.01367000000005	992.07098	1505.5542	425.86301000000003	940.90253	1369.71765	248.66809000000003	895.84125	1103.87231	173.0983	1055.22949	1265.91687	349.50739	1069.54041	1113.30579	375.4913	1118.1803	1291.09229	133.45181000000002	1174.68665	1165.78064	127.50908	1153.29517	976.87097	25.51620999999999	1136.07336	937.53394	105.37759999999999	1424.8335	949.70245	102.28137999999997	1403.92981	1049.52527	86.61720999999999	841.81451	1309.50696	425.46182	804.58624	1254.68689	272.62338	775.4187	1089.14844	461.2836	697.85437	1009.58325	432.73532	733.64569	976.99323	352.11099	916.03656	953.00879	584.3962400000001	936.02234	1041.38965	558.15393	956.39948	1021.27704	637.66711	1118.31213	884.68488	273.92764	922.67975	884.05402	151.16132	928.77979	881.74622	415.02872	863.38788	889.91351	193.88034	1204.53699	748.93207	169.67403999999996	1350.61646	510.64685	200.55628999999993	1332.56287	476.15137	337.69147	1305.41064	104.94416999999999	178.9817199999999	1288.77197	110.40536999999999	274.16143999999997	1225.61658	62.50156999999999	204.9736599999999	1443.85767	40.641829999999985	186.86356999999992	1418.58704	50.846649999999975	291.5934799999999	1497.3916	54.61790999999999	277.6800199999999	861.69153	501.20586999999995	529.56982	770.73682	435.96163999999993	474.68010999999996	898.80762	380.08481	456.90221999999994	680.50153	118.14656999999998	192.77790999999996	764.45795	75.36719999999998	230.54255999999995	732.59137	69.50672999999999	134.75852999999995	596.73077	48.94651999999998	305.33584999999994	704.44409	47.915619999999976	342.44008999999994	653.69177	50.787599999999976	397.83523999999994	
